HIERARCHY
ROOT Hips
{
	OFFSET 0.00000 0.00000 0.00000
	CHANNELS 6 Xposition Yposition Zposition Zrotation Yrotation Xrotation 
	JOINT LHipJoint
	{
		OFFSET 0 0 0
		CHANNELS 3 Zrotation Yrotation Xrotation
		JOINT LeftUpLeg
		{
			OFFSET 1.48831 -1.59570 0.95625
			CHANNELS 3 Zrotation Yrotation Xrotation
			JOINT LeftLeg
			{
				OFFSET 2.20856 -6.06797 0.00000
				CHANNELS 3 Zrotation Yrotation Xrotation
				JOINT LeftFoot
				{
					OFFSET 2.62924 -7.22379 0.00000
					CHANNELS 3 Zrotation Yrotation Xrotation
					JOINT LeftToeBase
					{
						OFFSET 0.16802 -0.46163 2.41673
						CHANNELS 3 Zrotation Yrotation Xrotation
						End Site
						{
							OFFSET 0.00000 -0.00000 1.23760
						}
					}
				}
			}
		}
	}
	JOINT RHipJoint
	{
		OFFSET 0 0 0
		CHANNELS 3 Zrotation Yrotation Xrotation
		JOINT RightUpLeg
		{
			OFFSET -1.56796 -1.59570 0.95625
			CHANNELS 3 Zrotation Yrotation Xrotation
			JOINT RightLeg
			{
				OFFSET -2.29239 -6.29829 0.00000
				CHANNELS 3 Zrotation Yrotation Xrotation
				JOINT RightFoot
				{
					OFFSET -2.66963 -7.33475 0.00000
					CHANNELS 3 Zrotation Yrotation Xrotation
					JOINT RightToeBase
					{
						OFFSET -0.18185 -0.49964 2.34359
						CHANNELS 3 Zrotation Yrotation Xrotation
						End Site
						{
							OFFSET -0.00000 -0.00000 1.20477
						}
					}
				}
			}
		}
	}
	JOINT LowerBack
	{
		OFFSET 0 0 0
		CHANNELS 3 Zrotation Yrotation Xrotation
		JOINT Spine
		{
			OFFSET 0.03505 2.15832 -0.34324
			CHANNELS 3 Zrotation Yrotation Xrotation
			JOINT Spine1
			{
				OFFSET -0.01089 2.17963 0.04689
				CHANNELS 3 Zrotation Yrotation Xrotation
				JOINT Neck
				{
					OFFSET 0 0 0
					CHANNELS 3 Zrotation Yrotation Xrotation
					JOINT Neck1
					{
						OFFSET 0.04686 1.69404 0.22159
						CHANNELS 3 Zrotation Yrotation Xrotation
						JOINT Head
						{
							OFFSET 0.00265 1.69305 -0.01513
							CHANNELS 3 Zrotation Yrotation Xrotation
							End Site
							{
								OFFSET -0.00415 1.80215 -0.03034
							}
						}
					}
				}
				JOINT LeftShoulder
				{
					OFFSET 0 0 0
					CHANNELS 3 Zrotation Yrotation Xrotation
					JOINT LeftArm
					{
						OFFSET 3.67184 1.11724 -0.19002
						CHANNELS 3 Zrotation Yrotation Xrotation
						JOINT LeftForeArm
						{
							OFFSET 5.17714 -0.00000 -0.00000
							CHANNELS 3 Zrotation Yrotation Xrotation
							JOINT LeftHand
							{
								OFFSET 3.43679 -0.00000 -0.00000
								CHANNELS 3 Zrotation Yrotation Xrotation
								JOINT LeftFingerBase
								{
									OFFSET 0 0 0
									CHANNELS 3 Zrotation Yrotation Xrotation
									JOINT LeftHandIndex1
									{
										OFFSET 0.57312 -0.00000 -0.00000
										CHANNELS 3 Zrotation Yrotation Xrotation
										End Site
										{
											OFFSET 0.46206 -0.00000 -0.00000
										}
									}
								}
								JOINT LThumb
								{
									OFFSET 0 0 0
									CHANNELS 3 Zrotation Yrotation Xrotation
									End Site
									{
										OFFSET 0.46912 -0.00000 0.46912
									}
								}
							}
						}
					}
				}
				JOINT RightShoulder
				{
					OFFSET 0 0 0
					CHANNELS 3 Zrotation Yrotation Xrotation
					JOINT RightArm
					{
						OFFSET -3.59596 0.95831 -0.26050
						CHANNELS 3 Zrotation Yrotation Xrotation
						JOINT RightForeArm
						{
							OFFSET -5.23908 -0.00000 -0.00000
							CHANNELS 3 Zrotation Yrotation Xrotation
							JOINT RightHand
							{
								OFFSET -3.46485 -0.00000 -0.00000
								CHANNELS 3 Zrotation Yrotation Xrotation
								JOINT RightFingerBase
								{
									OFFSET 0 0 0
									CHANNELS 3 Zrotation Yrotation Xrotation
									JOINT RightHandIndex1
									{
										OFFSET -0.60875 -0.00000 -0.00000
										CHANNELS 3 Zrotation Yrotation Xrotation
										End Site
										{
											OFFSET -0.49079 -0.00000 -0.00000
										}
									}
								}
								JOINT RThumb
								{
									OFFSET 0 0 0
									CHANNELS 3 Zrotation Yrotation Xrotation
									End Site
									{
										OFFSET -0.49829 -0.00000 0.49829
									}
								}
							}
						}
					}
				}
			}
		}
	}
}
MOTION
Frames: 8
Frame Time: .0083333
5.5772 14.7994 -17.4112 0 0 0 0 0 0 -21 0 0 0 0 0 0 0 0 0 0 0 0 0 0 21 0 0 0 0 0 0 0 0 0 0 0 0 0 0 0 0 0 0 0 0 0 0 -16 0 0 21 0 0 11 0 0 0 -8 0 0 0 0 0 0 0 0 0 0 0 0 0 0 0 0 0 0 0 0 8 0 0 0 0 0 0 0 0 0 0 0 0 0 0 0 0 0
5.5772 14.7994 -17.4112 -5.2618 -34.3810 6.7814 0.0000 0.0000 0.0000 -13.2475 8.0291 -42.9550 11.2427 18.0518 63.5672 2.3213 -6.7511 -27.5089 0.2231 -3.0402 -8.3908 0.0000 0.0000 0.0000 21.3499 2.5587 -42.4818 -12.2742 -18.5042 66.8554 -2.6389 -1.1625 -31.1855 -0.0802 1.8270 -5.0278 -0.0423 -0.9190 26.5177 0.7556 -1.2592 4.7751 1.3010 -0.6411 -9.3751 3.0241 0.3485 -10.2943 0.5267 -0.3838 21.8710 -0.3810 0.0579 8.4975 0.0000 -0.0000 0.0000 -87.4583 13.7130 35.5718 153.0789 -38.1039 -110.5496 -0.0000 -0.0000 0.6112 -1.5229 42.5581 -1.0301 -7.1250 0.0000 -0.0000 -50.3915 65.6768 -28.2073 0.0000 -0.0000 0.0000 83.0836 -6.1933 39.6270 -146.3667 43.8112 -106.1414 0.0000 0.0000 13.1363 17.2473 -20.5226 -6.2115 7.1250 -0.0000 -0.0000 41.8139 -46.0126 -1.2720
5.5775 14.7997 -17.4122 -5.2443 -34.3605 6.7767 0.0000 0.0000 0.0000 -13.2625 8.0400 -42.9731 11.2417 18.0513 63.5639 2.3204 -6.7794 -27.5009 0.2232 -3.0411 -8.3933 0.0000 0.0000 0.0000 21.3353 2.5455 -42.4971 -12.2748 -18.5044 66.8572 -2.6399 -1.1529 -31.1878 -0.0803 1.8275 -5.0293 -0.0481 -0.9196 26.5114 0.7377 -1.2633 4.7721 1.2858 -0.6430 -9.3754 3.0409 0.3396 -10.3060 0.5311 -0.4011 21.8848 -0.3842 0.0517 8.5042 0.0000 -0.0000 0.0000 -87.3919 13.7233 35.6264 153.1080 -38.0761 -110.5675 -0.0000 -0.0000 0.5955 -1.5740 42.5933 -1.0654 -7.1250 0.0000 -0.0000 -50.4969 65.6843 -28.2879 0.0000 -0.0000 0.0000 83.1070 -6.1959 39.6072 -146.3802 43.8011 -106.1508 0.0000 0.0000 13.2205 17.1818 -20.4824 -6.1752 7.1250 -0.0000 -0.0000 41.7380 -45.9899 -1.2404
5.5771 14.8001 -17.4125 -5.2661 -34.3481 6.7885 0.0000 0.0000 0.0000 -13.2365 8.0304 -42.9731 11.2426 18.0518 63.5671 2.3184 -6.8078 -27.4856 0.2189 -3.0122 -8.3127 0.0000 0.0000 0.0000 21.3618 2.5282 -42.4979 -12.2734 -18.5038 66.8527 -2.6372 -1.1985 -31.1879 -0.0839 1.8681 -5.1413 -0.0500 -0.9218 26.4976 0.7475 -1.2657 4.7745 1.2981 -0.6440 -9.3653 3.0207 0.3355 -10.2982 0.5303 -0.4018 21.8652 -0.3811 0.0495 8.4960 -0.0000 0.0000 0.0000 -87.3749 13.7341 35.6721 153.1289 -38.0560 -110.5805 -0.0000 -0.0000 0.6256 -1.5886 42.5428 -1.0743 -7.1250 0.0000 -0.0000 -50.4254 65.6475 -28.1983 -0.0000 0.0000 0.0000 83.0703 -6.1882 39.6344 -146.3907 43.7931 -106.1581 0.0000 0.0000 13.2683 17.1120 -20.4938 -6.1520 7.1250 -0.0000 -0.0000 41.6912 -46.0089 -1.2619
5.5770 14.7996 -17.4132 -5.2524 -34.3436 6.7757 0.0000 0.0000 0.0000 -13.2492 8.0411 -42.9728 11.2415 18.0513 63.5634 2.3183 -6.8069 -27.4855 0.2209 -3.0255 -8.3497 0.0000 0.0000 0.0000 21.3561 2.5172 -42.4980 -12.2733 -18.5038 66.8526 -2.6330 -1.2501 -31.1816 -0.0873 1.9056 -5.2448 -0.0780 -0.9169 26.5018 0.7422 -1.2675 4.7721 1.3090 -0.6440 -9.3697 3.0424 0.3382 -10.2850 0.5076 -0.3958 21.8403 -0.3917 0.0516 8.4851 0.0000 -0.0000 0.0000 -87.3744 13.7148 35.6971 153.1386 -38.0467 -110.5864 -0.0000 -0.0000 0.6174 -1.5343 42.5529 -1.0377 -7.1250 0.0000 -0.0000 -50.3929 65.6700 -28.2007 0.0000 -0.0000 0.0000 83.0748 -6.1806 39.6191 -146.3974 43.7881 -106.1627 0.0000 0.0000 13.2712 17.0837 -20.4824 -6.1380 7.1250 -0.0000 -0.0000 41.6621 -46.0038 -1.2543
5.5769 14.7997 -17.4138 -5.2516 -34.3341 6.7744 0.0000 0.0000 0.0000 -13.2478 8.0457 -42.9763 11.2408 18.0509 63.5611 2.3173 -6.8229 -27.4777 0.2207 -3.0239 -8.3452 0.0000 0.0000 0.0000 21.3582 2.5106 -42.4999 -12.2728 -18.5036 66.8509 -2.6321 -1.2648 -31.1811 -0.0883 1.9163 -5.2744 -0.0915 -0.9157 26.4964 0.7396 -1.2699 4.7719 1.3147 -0.6448 -9.3669 3.0440 0.3381 -10.2800 0.5028 -0.3944 21.8229 -0.3933 0.0518 8.4783 0.0000 -0.0000 0.0000 -87.3646 13.7064 35.7253 153.1555 -38.0305 -110.5969 -0.0000 -0.0000 0.6194 -1.5255 42.5485 -1.0317 -7.1250 0.0000 -0.0000 -50.3775 65.6698 -28.1899 0.0000 -0.0000 0.0000 83.0723 -6.1690 39.6126 -146.4013 43.7852 -106.1654 0.0000 0.0000 13.2827 17.0504 -20.4752 -6.1234 7.1250 -0.0000 -0.0000 41.6319 -46.0027 -1.2517
5.5769 14.7997 -17.4143 -5.2525 -34.3249 6.7743 0.0000 0.0000 0.0000 -13.2449 8.0478 -42.9790 11.2397 18.0504 63.5574 2.3161 -6.8345 -27.4693 0.2206 -3.0237 -8.3449 0.0000 0.0000 0.0000 21.3633 2.5042 -42.5029 -12.2725 -18.5035 66.8501 -2.6301 -1.2977 -31.1814 -0.0908 1.9439 -5.3507 -0.1039 -0.9152 26.4907 0.7378 -1.2728 4.7719 1.3207 -0.6458 -9.3637 3.0407 0.3395 -10.2757 0.5014 -0.3906 21.8038 -0.3928 0.0530 8.4710 -0.0000 0.0000 0.0000 -87.3608 13.7010 35.7471 153.1717 -38.0150 -110.6068 -0.0000 -0.0000 0.6195 -1.5189 42.5339 -1.0269 -7.1250 0.0000 -0.0000 -50.3470 65.6623 -28.1608 -0.0000 0.0000 0.0000 83.0714 -6.1527 39.6049 -146.4032 43.7838 -106.1667 0.0000 0.0000 13.2764 17.0318 -20.4719 -6.1154 7.1250 -0.0000 -0.0000 41.6154 -46.0027 -1.2510
5.5768 14.7997 -17.4149 -5.2527 -34.3152 6.7744 0.0000 0.0000 0.0000 -13.2430 8.0475 -42.9814 11.2383 18.0497 63.5530 2.3152 -6.8364 -27.4638 0.2218 -3.0316 -8.3666 0.0000 0.0000 0.0000 21.3659 2.5028 -42.5055 -12.2725 -18.5035 66.8500 -2.6302 -1.3104 -31.1865 -0.0917 1.9532 -5.3763 -0.1152 -0.9150 26.4846 0.7340 -1.2760 4.7717 1.3238 -0.6470 -9.3606 3.0395 0.3418 -10.2720 0.5011 -0.3864 21.7850 -0.3922 0.0548 8.4640 0.0000 -0.0000 0.0000 -87.3541 13.7009 35.7643 153.1886 -37.9988 -110.6172 -0.0000 -0.0000 0.6147 -1.5147 42.5123 -1.0237 -7.1250 0.0000 -0.0000 -50.3069 65.6496 -28.1193 0.0000 -0.0000 0.0000 83.0776 -6.1332 39.5949 -146.4003 43.7859 -106.1647 0.0000 0.0000 13.2556 17.0255 -20.4709 -6.1127 7.1250 -0.0000 -0.0000 41.6099 -46.0028 -1.2509
